<svg width="280" height="247" viewBox="0 0 280 247" fill="none" xmlns="http://www.w3.org/2000/svg">
<g clip-path="url(#clip0_172_2)">
<path fill-rule="evenodd" clip-rule="evenodd" d="M4.86875 0.322266C10.6214 54.9703 12.4696 88.5997 10.4132 101.211C7.32869 120.127 1.39865 164.352 4.86875 173.555C8.33886 182.759 -5.64199 238.147 2.69792 242.006C11.0378 245.865 279.48 249.393 279.48 242.006C279.48 234.619 274.611 189.991 274.611 173.555C274.611 157.119 279.48 23.5509 279.48 15.0568C279.48 6.56277 284.271 0.322266 264.78 0.322266C245.289 0.322266 97.1916 0.322266 85.0951 0.322266C77.0308 0.322266 50.2887 0.322266 4.86875 0.322266Z" fill="white"/>
</g>
<defs>
<clipPath id="clip0_172_2">
<rect width="280" height="247" fill="white"/>
</clipPath>
</defs>
</svg>
